# xmcd
#
# Track frame offsets: 
#        150
#        19669
#        34896
#        50206
#        69520
#        86453
#        104558
#        123390
#        143542
#        156538
#        174043
#        190938
#        204293
#        219267
#        253829
#        279041
#
# Disc length: 3956 seconds
#
# Revision: 0
# Processed by: cddbd v1.5.2PL0 Copyright (c) Steve Scherf et al.
# Submitted via: ExactAudioCopy v0.99pb5
#
DISCID=dd0f7210
DTITLE=Mick Stover's Gentlemen's Blues Club - The Sky's on Fire
DYEAR=2009
DGENRE=Blues
TTITLE0=Harley Davidson® Red White And Blue
TTITLE1=The Sky's On Fire
TTITLE2=State Of Grace
TTITLE3=Longhorn Honeymoon
TTITLE4=The Bastard
TTITLE5=Walkin' Dead
TTITLE6=Shotgun Wedding
TTITLE7=Run
TTITLE8=Dust Broom
TTITLE9=2 Kinds Of Women
TTITLE10=Take Time Out To Hear Me Some Blues
TTITLE11=Living At The Aztec Hotel
TTITLE12=Slippin' Away
TTITLE13=Since I Been Loving You (Live)
TTITLE14=Dust Broom (Live)
TTITLE15=Shotgun Wedding (Live)
EXTD=
EXTT0=
EXTT1=
EXTT2=
EXTT3=
EXTT4=
EXTT5=
EXTT6=
EXTT7=
EXTT8=
EXTT9=
EXTT10=
EXTT11=
EXTT12=
EXTT13=
EXTT14=
EXTT15=
PLAYORDER=
